<svg xmlns="http://www.w3.org/2000/svg" width="32" height="32" viewBox="0 0 32 32">
  <defs>
    <style>
      .cls-1 {
        fill: #fff;
        fill-rule: evenodd;
      }
    </style>
  </defs>
  <path id="Forma_83" data-name="Forma 83" class="cls-1" d="M20.491,0a11.48,11.48,0,0,0-9.965,17.22L0.864,26.879a3,3,0,1,0,4.243,4.242l9.662-9.658A11.5,11.5,0,1,0,20.491,0ZM3.693,29.707a1,1,0,1,1-1.415-1.413l9.409-9.407A11.734,11.734,0,0,0,13.1,20.3ZM20.491,21a9.5,9.5,0,1,1,9.5-9.5A9.512,9.512,0,0,1,20.491,21ZM25.757,6.1a1,1,0,0,0-1.415,1.414,5.641,5.641,0,0,1,0,7.97A1,1,0,0,0,25.758,16.9,7.644,7.644,0,0,0,25.757,6.1Z"/>
</svg>
